Coordinates
version=1
nRows=8
nColumns=40
inDegrees=yes

Units are S.I. units (second, meters, Newtons, ...)
If the header above contains a line with 'inDegrees', this indicates whether rotational values are in degrees (yes) or radians (no).

endheader
time	pelvis_tilt	pelvis_list	pelvis_rotation	pelvis_tx	pelvis_ty	pelvis_tz	hip_flexion_r	hip_adduction_r	hip_rotation_r	knee_angle_r	knee_angle_r_beta	ankle_angle_r	subtalar_angle_r	mtp_angle_r	hip_flexion_l	hip_adduction_l	hip_rotation_l	knee_angle_l	knee_angle_l_beta	ankle_angle_l	subtalar_angle_l	mtp_angle_l	lumbar_extension	lumbar_bending	lumbar_rotation	arm_flex_r	arm_add_r	arm_rot_r	elbow_flex_r	pro_sup_r	wrist_flex_r	wrist_dev_r	arm_flex_l	arm_add_l	arm_rot_l	elbow_flex_l	pro_sup_l	wrist_flex_l	wrist_dev_l
      0.00500000	     -6.25863133	     11.78609564	      2.38726283	     -0.59929076	      0.89730926	      0.18898908	     37.60899374	    -16.61606151	    -14.57847291	      8.74817190	      0.15268440	      2.03781724	      8.30064198	      0.00000000	    -10.44232069	     11.01337099	    -19.41217143	      9.20864142	      0.16072111	      7.04048617	     19.16662672	      0.00000000	      3.61674773	    -10.79525944	      7.80707876	     32.02454937	    -13.61884127	     32.02454937	     79.51501426	     43.43386810	      0.00000000	      0.00000000	     32.02454937	    -13.61884127	     32.02454937	     79.51501426	     43.43386810	      0.00000000	      0.00000000
      0.01000000	     -6.33516888	     11.81767696	      2.41786418	     -0.59468731	      0.89651983	      0.18935809	     37.71114796	    -16.59862484	    -14.56669383	      8.73157486	      0.15239473	      2.03808309	      8.30229707	      0.00000000	    -10.64143050	     10.96868255	    -19.39882034	      9.25509399	      0.16153186	      7.03099062	     19.16754839	      0.00000000	      3.61172422	    -10.79432744	      7.80629436	     32.02463989	    -13.61885693	     32.02463989	     79.51491462	     43.43396243	      0.00000000	      0.00000000	     32.02463989	    -13.61885693	     32.02463989	     79.51491462	     43.43396243	      0.00000000	      0.00000000
      0.01500000	     -6.31518416	     11.80957288	      2.45172986	     -0.58969787	      0.89582477	      0.18998145	     37.71149185	    -16.52172824	    -14.39303393	      8.78237034	      0.15328128	      2.06027120	      8.34841728	      0.00000000	    -10.90976481	     10.83234644	    -19.17749859	      9.46057829	      0.16511824	      6.91983185	     19.20784671	      0.00000000	      3.66811273	    -10.79201265	      7.81599197	     32.02590864	    -13.61907803	     32.02590864	     79.51349439	     43.43532571	      0.00000000	      0.00000000	     32.02590864	    -13.61907803	     32.02590864	     79.51349439	     43.43532571	      0.00000000	      0.00000000
      0.02000000	     -6.31567467	     11.80668568	      2.52042547	     -0.58407498	      0.89506276	      0.19044888	     37.69562707	    -16.48026527	    -14.25427945	      8.82712191	      0.15406234	      2.09026212	      8.35821315	      0.00000000	    -11.19212284	     10.69585096	    -19.02798433	      9.66472579	      0.16868129	      6.79208768	     19.22137086	      0.00000000	      3.69882219	    -10.77317238	      7.81587852	     32.02726500	    -13.61931438	     32.02726500	     79.51197630	     43.43678218	      0.00000000	      0.00000000	     32.02726500	    -13.61931438	     32.02726500	     79.51197630	     43.43678218	      0.00000000	      0.00000000
      0.02500000	     -6.30660569	     11.79801809	      2.60149854	     -0.57798057	      0.89428981	      0.19097403	     37.65017183	    -16.43199748	    -14.11203492	      8.90286342	      0.15538428	      2.10231714	      8.33464000	      0.00000000	    -11.49385527	     10.53494781	    -18.87373486	      9.90516733	      0.17287778	      6.62701308	     19.22408089	      0.00000000	      3.71822249	    -10.72956582	      7.80235852	     32.02873931	    -13.61957128	     32.02873931	     79.51032645	     43.43836418	      0.00000000	      0.00000000	     32.02873931	    -13.61957128	     32.02873931	     79.51032645	     43.43836418	      0.00000000	      0.00000000
      0.03000000	     -6.28485356	     11.76523866	      2.68766615	     -0.57144335	      0.89351875	      0.19145841	     37.57538910	    -16.37425705	    -13.95949266	      9.02547508	      0.15752426	      2.08026340	      8.27106337	      0.00000000	    -11.81632997	     10.33965701	    -18.70840343	     10.18279803	      0.17772335	      6.42309645	     19.21315490	      0.00000000	      3.72703268	    -10.65868112	      7.77353553	     32.03028203	    -13.61984009	     32.03028203	     79.50860042	     43.44001820	      0.00000000	      0.00000000	     32.03028203	    -13.61984009	     32.03028203	     79.50860042	     43.44001820	      0.00000000	      0.00000000
      0.03500000	     -6.25430889	     11.71487437	      2.77577041	     -0.56454917	      0.89273313	      0.19202308	     37.48332285	    -16.29906051	    -13.79253842	      9.19720545	      0.16052152	      2.01486945	      8.17707783	      0.00000000	    -12.15497045	     10.10930720	    -18.53242532	     10.48176652	      0.18294134	      6.19284529	     19.18779867	      0.00000000	      3.73354265	    -10.56695440	      7.73235486	     32.03171497	    -13.62008974	     32.03171497	     79.50699778	     43.44155286	      0.00000000	      0.00000000	     32.03171497	    -13.62008974	     32.03171497	     79.50699778	     43.44155286	      0.00000000	      0.00000000
      0.04000000	     -5.13399326	      9.84420846	      4.00625792	     -0.55649812	      0.89547447	      0.18935232	     34.66121150	    -15.14598935	    -15.41356492	      7.94621653	      0.13868764	      1.41323592	      6.37495633	      0.00000000	    -13.31460385	      7.48247460	    -18.45231484	     11.57864968	      0.20208556	      5.99976569	     20.04984848	      0.00000000	      2.05841622	     -7.81726899	      5.97466745	     32.10845492	    -13.63344026	     32.10845492	     79.42166333	     43.52191533	      0.00000000	      0.00000000	     32.10845492	    -13.63344026	     32.10845492	     79.42166333	     43.52191533	      0.00000000	      0.00000000
